<?xml version="1.0" standalone="no"?>
<!DOCTYPE svg PUBLIC "-//W3C//DTD SVG 20010904//EN"
 "http://www.w3.org/TR/2001/REC-SVG-20010904/DTD/svg10.dtd">
<svg version="1.0" xmlns="http://www.w3.org/2000/svg"
 width="1000.000000pt" height="1000.000000pt" viewBox="0 0 1000.000000 1000.000000"
 preserveAspectRatio="xMidYMid meet">
<metadata>
Created by potrace 1.11, written by Peter Selinger 2001-2013
</metadata>
<g transform="translate(0.000000,1000.000000) scale(0.100000,-0.100000)"
fill="#000000" stroke="none">
<path d="M0 5000 l0 -5000 5000 0 5000 0 0 5000 0 5000 -5000 0 -5000 0 0
-5000z m5361 2540 c392 -39 749 -178 923 -360 73 -76 100 -136 100 -215 -1
-97 -28 -161 -98 -231 -51 -50 -70 -63 -115 -74 -77 -18 -164 -7 -273 36 -453
177 -546 207 -717 225 -476 51 -897 -201 -975 -583 -38 -183 -1 -348 111 -500
111 -152 343 -276 778 -418 700 -227 949 -329 1150 -472 310 -221 485 -591
485 -1028 0 -440 -135 -788 -419 -1083 -288 -298 -652 -474 -1091 -526 -371
-44 -804 -5 -1152 105 -388 124 -649 305 -674 470 -9 63 2 157 25 209 27 61
97 134 156 161 97 46 210 25 490 -93 225 -94 436 -165 585 -195 99 -20 143
-23 315 -22 184 0 208 2 300 27 385 103 660 391 716 747 14 90 6 260 -16 345
-24 94 -91 217 -157 290 -144 157 -271 213 -1068 465 -618 196 -894 343 -1076
574 -155 196 -225 414 -226 706 0 287 64 518 205 732 209 318 549 553 945 652
96 24 265 53 352 59 105 8 325 6 421 -3z"/>
</g>
</svg>
